<svg width="50" height="51" viewBox="0 0 50 51" fill="none" xmlns="http://www.w3.org/2000/svg">
<path d="M5 10.9478H20V16.9478H5V10.9478Z" fill="black"/>
<path d="M5.40005 8.96809C5.63541 8.91599 5.94392 8.9717 6.17839 9.04817C6.25187 9.07189 6.21466 9.1779 6.26539 9.19905C6.3646 9.24027 6.45702 9.18828 6.55506 9.23738C6.58755 9.25417 6.54711 9.4221 6.58118 9.43587C6.76787 9.51008 6.94449 9.46731 7.13361 9.503C8.06516 9.67912 8.98085 9.74216 9.9238 9.81868C10.2347 9.84376 10.6127 9.99617 10.9338 9.92952C10.9713 9.92159 10.9489 9.77419 10.9561 9.76204C11.068 9.57605 11.0308 9.87362 11.1038 9.91316C11.3937 10.0693 11.7161 10.0828 11.9951 10.026C12.1138 10.0013 11.9948 9.70854 12.1143 9.87288C12.1226 9.88398 12.0925 10.0405 12.125 10.0572C12.1988 10.0948 12.3389 10.0668 12.3961 10.0792C12.5064 10.1039 12.5246 10.1023 12.6289 10.1041C12.7715 10.1079 12.9411 10.1857 13.094 10.1502C13.1267 10.1422 13.0834 9.98172 13.1355 9.95442C13.1876 9.92716 13.3255 9.94076 13.372 9.97859C13.4185 10.0164 13.3987 10.1426 13.4069 10.1715C13.4746 10.4155 13.6341 10.0775 13.6546 10.0692C14.0288 9.92677 14.3496 10.1193 14.7008 10.1187C14.9675 10.1179 15.2526 10.0543 15.5063 10.0631C15.8085 10.0741 16.0647 10.161 16.3583 10.1461C16.3893 10.1447 16.353 9.95601 16.3908 9.95393C16.7929 9.93198 17.1922 9.95254 17.5926 10.0799C17.6328 10.0928 17.581 10.2585 17.6211 10.2813C17.8667 10.4175 18.2554 10.7445 18.4012 10.0233C18.5676 10.0514 18.7696 10.0805 18.9184 10.2259C19.0144 10.3195 18.9212 10.4999 19.0391 10.4229C19.0656 10.4058 19.0311 10.2477 19.0709 10.234C19.2388 10.1761 19.4222 10.2275 19.5883 10.1458C19.6221 10.1288 19.6128 9.98724 19.6224 9.96174C19.7028 9.75524 19.8367 10.0966 19.8659 10.1214C19.913 10.1606 19.9573 10.1882 20 10.2074L20.6638 10.1442L20.7404 10.9478C20.6687 11.1067 20.7132 11.2421 20.7096 11.4054C20.7085 11.4534 20.8987 11.3966 20.9045 11.4429C20.9317 11.6827 20.9154 11.9311 20.831 12.1659C20.8118 12.2182 20.6497 12.1701 20.6323 12.1951C20.5572 12.3051 20.8632 12.3295 20.797 12.4351C20.7835 12.4573 20.6448 12.4448 20.6296 12.4489C20.3904 12.5124 20.7293 12.5676 20.7367 12.5839C20.839 12.7906 20.4852 12.9228 20.5353 13.1224C20.5417 13.1463 20.7172 13.0925 20.7243 13.1596C20.7727 13.607 20.7245 14.0801 20.5842 14.5229C20.5626 14.5917 20.4307 14.5426 20.4145 14.5469C20.1605 14.6175 20.5008 14.6632 20.5136 14.6857C20.6058 14.8628 20.3205 15.0282 20.7258 15.1485C20.6129 15.7504 20.7371 16.35 20.6031 16.9478L20.6546 17.4885L20 17.5508C19.8528 17.5178 19.7057 17.4691 19.5587 17.3974C19.5493 17.3932 19.5662 17.2256 19.5474 17.2179C19.3202 17.1239 19.3638 17.3843 19.2135 17.7028C19.1756 17.7828 19.0604 17.3982 19.0502 17.37C19.0131 17.2662 19.0516 17.0169 19.0391 16.9968C18.9362 16.8388 18.953 17.6632 18.8142 17.6635C18.8099 17.6621 18.8281 17.5104 18.8164 17.4953C18.7802 17.4479 18.7444 17.5082 18.7089 17.456C18.6279 17.3351 18.599 16.9345 18.4752 17.1677C18.4595 17.1979 18.4834 17.6656 18.3595 17.6435C18.3101 17.6343 18.0914 17.6423 18.0301 17.612C17.9689 17.5817 18.0109 17.431 18.0065 17.4245C17.8416 17.2252 17.9041 17.1426 17.8215 16.8476C17.7389 16.5537 17.7618 17.2547 17.7281 17.3329C17.6943 17.411 17.5734 17.2465 17.5437 17.1894C17.514 17.1322 17.551 17.0364 17.5246 17.0041C17.3495 16.7927 17.4477 17.352 17.39 17.4633C17.254 17.7268 17.148 17.2069 17.0234 17.1559C16.9897 17.1422 17.0172 17.2606 16.9872 17.2717C16.8684 17.3139 16.7969 17.1517 16.6617 17.3005C16.6396 17.3247 16.5302 17.6373 16.4595 17.4079C16.4495 17.3748 16.4779 17.2453 16.4273 17.2162C16.3516 17.1727 16.2153 17.1444 16.1339 17.1877C16.0739 17.2197 16.1427 17.4332 16.0671 17.3669C16.0335 17.3373 16.0958 17.2124 16.0327 17.1672C15.9699 17.122 15.8094 17.1275 15.7483 17.1318C15.6873 17.1362 15.7207 17.2981 15.7157 17.309C15.6859 17.3715 15.5689 17.4496 15.5586 17.4494C15.037 17.4692 14.556 17.1962 14.0482 17.2866C14.0084 17.2934 14.0349 17.4642 14.0288 17.467C13.8924 17.5385 14 17.0845 13.9046 16.9325C13.9184 17.2791 13.8622 17.2163 13.7661 17.2543C13.7198 17.2729 13.745 17.4071 13.7407 17.4208C13.6721 17.6246 13.6242 17.3614 13.6119 17.3075C13.5664 17.1095 13.517 17.3435 13.486 17.2111C13.4551 17.0797 13.5263 16.8849 13.4341 16.8874C13.4082 17.0114 13.4767 17.3356 13.4067 17.3881C13.1427 17.5868 12.6498 17.3325 12.4375 17.3061C12.2257 17.2797 12.1572 17.3026 12.0338 17.2577C11.8108 17.1767 11.8925 17.4172 11.754 17.5273C11.6152 17.6373 11.6827 17.0456 11.6627 16.9184C11.6431 16.7912 11.6217 16.9221 11.5974 16.8522C11.5731 16.7823 11.6257 16.6958 11.5685 16.6696C11.5113 16.6434 11.355 16.8696 11.3348 17.0026C11.2919 17.2844 11.3624 17.5802 11.2111 17.4762C11.2024 17.4701 11.2306 17.3145 11.1973 17.2988C10.9327 17.179 10.6578 17.1715 10.3935 17.0656C10.3571 17.0508 10.3896 16.8777 10.3685 16.8671C10.1482 16.7564 10.2269 17.0483 10.1062 17.3725C10.1333 16.941 10.0666 16.677 9.89937 16.6745C9.79887 16.6728 9.81617 16.8613 9.75117 16.9941C9.73167 17.0341 9.66055 16.9047 9.64767 16.9933C9.60518 17.283 9.67216 17.6073 9.49979 17.4782C9.49223 17.4721 9.5163 17.3135 9.49017 17.3039C9.32126 17.241 9.30105 17.544 9.11847 17.5807C8.97536 17.6095 8.72082 17.4248 8.55787 17.3947C8.56129 16.9096 8.40738 17.0207 8.34494 17.3552C8.23918 17.3415 8.12496 17.3604 8.02274 17.3141C7.98756 17.2984 8.01067 17.1579 8.00624 17.1428C7.93821 16.9047 7.89224 17.2301 7.86941 17.2428C7.62201 17.3669 7.42043 17.1202 7.18432 17.3613C7.17594 17.3699 7.16236 17.7069 7.09925 17.4609C7.09516 17.4439 7.17314 17.2906 7.06207 17.2787C6.95099 17.2669 6.74157 17.0862 6.58735 17.2424C6.55003 17.28 6.45563 17.5535 6.37987 17.3398C6.36978 17.3108 6.38082 17.2141 6.36625 17.1603C6.31915 16.989 6.29343 17.3296 6.23808 17.0402C6.18271 16.7509 6.06757 16.5342 5.91203 16.7338C5.90708 16.7396 5.87026 17.0096 5.82135 17.0053C5.74327 16.9983 5.63243 16.942 5.5509 16.9438C5.51187 16.9447 5.53685 17.1123 5.53007 17.1154C5.33485 17.1853 5.18148 17.1205 5 17.056L4.90292 17.0653L4.89173 16.9478C4.91393 16.8853 4.93609 16.8194 4.95271 16.7474C4.96493 16.6959 4.73635 16.5477 4.91706 16.4479C5.11489 16.3384 5.93783 16.451 5.74177 16.1991C5.66335 16.0976 4.61931 15.969 5.16023 15.7864C5.02619 15.4324 5.30303 15.105 5.11164 14.75C5.10316 14.734 4.81178 14.6835 4.81574 14.646C4.8222 14.5903 4.95838 14.5597 4.96735 14.5199C5.00838 14.3532 4.89186 14.2006 4.90998 14.0399C4.91657 13.9789 5.05738 14.0002 5.06526 13.9274C5.07299 13.8547 4.88756 13.8062 4.97712 13.7076C5.04538 13.6331 5.4244 13.5587 5.46857 13.4599C5.09472 13.4561 5.10242 13.3883 5.00373 13.2676C4.98458 13.2444 4.85446 13.2693 4.83869 13.2583C4.77163 13.2137 4.87947 13.1724 4.80647 13.13C4.78893 13.1197 4.66126 13.1192 4.63972 13.1108C4.4517 13.0391 4.73888 12.921 4.78889 12.9007C4.97879 12.823 4.81274 12.7867 4.88752 12.7271C4.96229 12.6675 5.05577 12.7565 5.10114 12.687C5.195 12.5429 5.17438 12.3577 5.18024 12.2113C5.1818 12.1529 5.01137 12.1928 5.00764 12.1844C4.96441 12.0636 5.1457 11.9415 4.80622 11.8745C5.68398 11.7908 4.72109 11.8017 4.8968 11.6291C4.91101 11.6155 5.32609 11.5982 5.38703 11.6504C5.44791 11.7026 5.31816 11.7818 5.41315 11.8542C5.43545 11.8713 5.82441 11.9696 5.84797 11.983C6.03211 12.088 5.41182 12.1029 5.37775 12.1085C5.01009 12.1715 5.42912 12.2915 5.45808 12.3231C5.59075 12.4678 5.50351 12.5907 5.59821 12.7117C5.65942 12.7908 6.06573 12.7985 6.05329 12.8607C6.01218 13.0672 5.44538 13.1393 5.93683 13.334C6.04165 13.3757 6.48574 13.3342 6.13654 13.4838C6.11453 13.4932 5.79508 13.6042 5.99714 13.6683C6.02261 13.6764 6.15204 13.6761 6.16291 13.6868C6.23323 13.758 6.13013 13.8055 6.17951 13.883C6.22889 13.9606 6.30251 14.0539 6.25861 14.1424C6.23236 14.1958 5.99123 14.2643 5.9322 14.2898C5.76213 14.362 6.04097 14.4393 5.83503 14.484C5.62805 14.5291 5.31373 14.441 5.18 14.5591C5.51625 14.5635 5.86137 14.5736 6.19953 14.5806C6.18769 14.8396 6.07896 15.0944 6.09382 15.3543C6.09599 15.3865 6.27676 15.3536 6.28376 15.3881C6.31247 15.5338 6.18361 15.6611 6.23493 15.8122C6.27534 15.9292 6.46674 16.0574 6.51496 16.1797C6.1302 16.2545 6.26081 16.4359 6.22565 16.5678C6.2135 16.614 6.11074 16.6109 6.07721 16.6437C5.95322 16.7676 6.29324 16.7096 6.34675 16.7436C6.50184 16.8425 6.19663 16.88 5.99077 16.9478L5 15.957C5.03199 16.0542 5.07071 16.1293 5.12584 16.1232C5.13495 16.1225 5.24622 15.7122 5.26155 15.6867C5.35893 15.5201 5.27767 15.8295 5.33861 15.8598C5.44989 15.9152 5.52721 16.0132 5.65777 15.893C5.69584 15.8574 5.78716 15.6017 5.86108 15.7995C5.87081 15.8254 5.86543 15.961 5.87326 15.9689C6.01495 16.1013 6.01868 15.6752 6.09965 15.5309C6.18063 15.3867 6.30571 15.6808 6.33116 15.7656C6.39776 15.9848 6.28014 15.8593 6.27653 15.8808C6.23416 16.1369 6.32539 16.0928 6.39509 16.1144C6.40518 16.5322 6.50265 16.5071 6.46735 16.1352C6.46333 16.0946 6.40908 16.1335 6.39509 16.1144C6.45627 15.7046 6.5634 15.6521 6.68172 16.0351C6.7371 16.2146 6.68474 16.4239 6.85299 16.3473C6.92935 16.3128 6.89984 16.0251 6.96723 15.9467C7.12117 15.7678 7.32121 16.0361 7.47992 15.9938C7.53752 15.9785 7.48141 15.821 7.52078 15.8051C7.62525 15.7624 7.71738 15.8805 7.82231 15.82C7.83181 15.8143 7.80859 15.6495 7.84121 15.6474C8.08856 15.6283 8.30394 15.7338 8.56219 15.7368C8.68697 15.7381 8.91006 15.6472 9.03932 15.6655C9.26335 15.6962 9.53895 15.9358 9.73034 15.8776C9.85516 15.8403 9.82778 15.6755 9.88126 15.5632C9.98448 15.3454 10.1672 15.7354 10.1918 15.7958C10.1925 15.7978 10.0851 15.8367 10.1424 15.9213C10.1757 16.0977 10.1906 15.7966 10.1918 15.7958C10.2079 15.8348 10.4225 15.8723 10.4651 15.8408C10.4882 15.8235 10.4753 15.6673 10.4874 15.6613C10.7743 15.5215 11.0617 15.4818 11.3527 15.5549C11.3578 15.558 11.3501 15.7327 11.3622 15.738C11.5306 15.8157 11.6385 15.6019 11.7774 15.475C11.9164 15.3482 12.0265 15.3907 12.1088 15.6906C12.2136 15.6528 12.364 15.7854 12.4505 15.8659C12.537 15.9464 12.5491 15.6063 12.5567 15.5995C12.7942 15.3844 12.9315 15.579 13.1779 15.6093C13.295 15.6243 13.5274 15.575 13.6542 15.5378C13.7545 15.5078 13.8149 15.5875 13.9072 15.5366C13.9197 15.5297 13.9071 15.3783 13.9109 15.3725C14.014 15.1913 13.9644 15.5615 13.9857 15.6276C14.0629 15.868 14.1105 15.9961 14.2425 15.883C14.273 15.8571 14.3617 15.3241 14.4172 15.2929C14.4893 15.2534 14.4621 15.4444 14.5377 15.3981C14.5441 15.3943 14.5428 15.2765 14.5894 15.2817C14.8059 15.3042 15.0419 15.3728 15.2668 15.361C15.2975 15.3599 15.2582 15.1729 15.3025 15.1681C15.5109 15.146 15.7392 15.1529 15.9421 15.2404C15.9921 15.2625 15.9608 15.3934 15.9716 15.4323C16.0382 15.6675 16.1326 15.3258 16.1482 15.3193C16.5198 15.1551 16.8041 15.4643 17.1829 15.3171C17.2035 15.3084 17.3622 14.9421 17.433 15.2563C17.4378 15.2772 17.5079 15.5986 17.5698 15.3788C17.5736 15.3651 17.53 15.1996 17.6062 15.2165C17.6823 15.2333 17.8049 15.1228 17.9096 15.3046C17.9428 15.3619 18.0211 15.6825 18.12 15.4269C18.1264 15.4091 18.2791 14.8312 18.3335 15.2299C18.3424 15.2955 18.3331 15.7175 18.4511 15.5012C18.4737 15.4592 18.4328 15.3651 18.4922 15.3063C18.5832 15.2158 18.7038 15.3288 18.8156 15.1408C18.8352 15.1075 18.9182 14.8211 18.9848 15.0385C18.9953 15.0726 18.9754 15.2134 19.0106 15.2292C19.1779 15.3048 19.3531 15.2106 19.523 15.308C19.5832 15.3423 19.5524 15.57 19.6151 15.631C19.6779 15.692 19.8042 15.7507 19.8699 15.6467C19.9355 15.5426 19.8638 15.1796 19.9622 15.1506C19.9748 15.1468 19.9874 15.1434 20 15.1403L18.1925 16.9478C18.0891 16.533 18.2905 16.1219 18.3207 15.7075C18.3254 15.6442 18.1955 15.6967 18.1931 15.6034C18.1834 15.2594 18.0616 14.6654 18.3376 14.3668C18.5586 14.1276 18.7269 14.4287 18.8168 14.2459C18.8597 14.1577 18.4378 14.0623 18.4245 14.041C18.2896 13.833 18.4765 13.6884 18.4191 13.5012C18.4072 13.4625 18.2362 13.5004 18.228 13.4675C18.1983 13.3552 18.2746 13.237 18.2607 13.1296C18.254 13.0815 18.1234 13.0903 18.1335 13.046C18.1561 12.9399 18.211 12.8461 18.3334 12.7427C18.3446 12.7333 18.5071 12.7968 18.5131 12.7184C18.5224 12.5913 18.6432 12.4337 18.5185 12.2875C18.481 12.2442 18.1824 12.2425 18.3886 12.1493C18.4317 12.1297 18.7901 12.1547 18.4804 12.0461C18.4289 12.0278 18.0112 11.8454 18.2805 11.7559C18.3513 11.7323 18.6447 11.6721 18.5986 11.6199C18.5912 11.6128 18.4309 11.6412 18.4152 11.598C18.3629 11.4457 18.38 11.2861 18.3298 11.1296C18.316 11.0879 18.1501 11.1501 18.1349 11.0878C18.1241 11.0435 18.1189 10.9963 18.118 10.9478L20 12.8297C19.8612 12.8322 19.7117 12.799 19.5876 12.7606C19.5259 12.7411 19.5686 12.6036 19.5641 12.5887C19.4919 12.3454 19.4492 12.6738 19.4252 12.6929C19.2761 12.8076 19.1625 12.6533 19.0251 12.6942C18.9872 12.705 19.0141 12.8616 19.0065 12.8756C18.9282 13.012 18.9866 12.7308 18.937 12.6998C18.7982 12.612 18.6434 12.6246 18.503 12.6446C18.4514 12.6522 18.5094 12.8337 18.4631 12.8384C18.1891 12.8697 17.9043 12.8524 17.637 12.7523C17.5867 12.7331 17.6183 12.5933 17.6078 12.5613C17.5355 12.3379 17.4295 12.6427 17.4052 12.6717C17.2943 12.8042 17.2512 12.6806 17.1533 12.7037C16.675 12.8186 16.0843 12.7367 15.6328 12.6861C15.0445 12.621 14.5879 12.488 14.0268 12.5225C13.9911 12.5245 14.0271 12.7105 13.9964 12.7147C13.5995 12.7595 13.2088 12.6868 12.8111 12.7405C12.7784 12.7446 12.8255 12.9209 12.7731 12.9334C12.6657 12.9602 12.5296 12.9506 12.4209 12.8944C12.368 12.8672 12.439 12.7159 12.3857 12.6917C12.2615 12.635 12.1284 12.6224 12.0009 12.6507C11.9466 12.6631 12.0285 12.8434 11.9579 12.8455C11.4773 12.8634 11.0053 12.8945 10.5196 12.661C10.4864 12.6449 10.4571 12.2784 10.3863 12.3487C10.381 12.4504 10.3813 12.5701 10.379 12.6788C9.67934 12.7373 8.98685 12.6103 8.28525 12.5906C8.25567 12.5899 8.30679 12.784 8.24952 12.7835C7.91806 12.7806 7.59618 12.8344 7.25713 12.6414C7.22349 12.6225 7.24075 12.2809 7.14162 12.3326C7.12413 12.342 6.97482 12.3876 6.93622 12.4617C6.93098 12.4729 6.95822 12.6324 6.9101 12.637C6.6305 12.6612 6.3375 12.6248 6.05839 12.5274C6.01334 12.5114 6.06131 12.3416 6.02923 12.3287C5.80164 12.2385 5.55408 12.3676 5.33661 12.2134C5.19104 12.1096 5.24493 11.8161 5.16758 11.5272C5.15664 11.4864 5.06649 11.4799 5.06183 11.3118C5.04987 10.8891 5.09353 10.4262 5.07561 9.97566C5.07183 9.87861 4.9511 9.98314 5.02258 9.74861C5.02757 9.73291 5.1151 9.65507 5.13665 9.57551C5.15166 9.52051 5.12462 9.34954 5.15524 9.27913C5.18586 9.20878 5.21951 9.35209 5.27028 9.26936C5.32102 9.18561 5.29871 8.99112 5.40005 8.96809ZM12.8402 16.2255C12.9203 16.3888 12.9321 15.7907 12.8454 15.9338C12.8413 15.9414 12.836 16.2175 12.8402 16.2255ZM5.62775 15.093C5.36391 15.1977 5.75186 15.2694 5.95563 15.1955C6.15918 15.1216 5.70773 15.0611 5.62775 15.093ZM5.43513 14.0067C5.2271 14.1291 6.07535 14.1484 5.90388 14.0173C5.89419 14.0097 5.44721 13.9996 5.43513 14.0067ZM5.5263 11.4449C5.5252 11.4369 5.4604 11.4292 5.45885 11.4371C5.42435 11.6271 5.55392 11.6424 5.5263 11.4449ZM5.22541 12.9288C5.11067 12.967 5.24313 13.077 5.38581 13.0295C5.5006 12.9913 5.36815 12.8812 5.22541 12.9288ZM17.0201 16.8639C17.0213 16.8729 17.0678 16.8809 17.0669 16.8305C17.0637 16.6682 16.9991 16.714 17.0201 16.8639ZM5.21565 11.0967C5.18372 11.3674 4.48302 11.5315 4.56208 11.2367C4.57639 11.1833 4.78553 11.3518 4.8487 11.2838C4.96379 11.1595 4.52384 11.0769 4.75959 10.9501C4.80274 10.9271 5.21902 11.0812 5.21662 11.0972C5.2163 11.097 5.21597 11.0968 5.21565 11.0967ZM12.8863 16.944C12.8879 16.9519 12.9522 16.9594 12.9538 16.9516C12.9886 16.7617 12.859 16.7465 12.8863 16.944ZM19.7308 17.2338C19.7344 17.2507 19.8836 17.2664 19.8885 17.2509C19.9663 16.9404 19.6646 16.9076 19.7308 17.2338ZM8.5553 17.3818C8.48513 17.5728 8.4012 17.5953 8.34526 17.3554C8.41499 17.3681 8.48519 17.37 8.5553 17.3818Z" fill="black"/>
<path d="M30 34.9478H45V40.9478H30V34.9478Z" fill="black"/>
<path d="M30.4001 32.9681C30.6354 32.916 30.9439 32.9717 31.1784 33.0482C31.2519 33.0719 31.2147 33.1779 31.2654 33.199C31.3646 33.2403 31.457 33.1883 31.5551 33.2374C31.5876 33.2542 31.5471 33.4221 31.5812 33.4359C31.7679 33.5101 31.9445 33.4673 32.1336 33.503C33.0652 33.6791 33.9808 33.7422 34.9238 33.8187C35.2347 33.8438 35.6127 33.9962 35.9338 33.9295C35.9713 33.9216 35.9489 33.7742 35.9561 33.762C36.068 33.5761 36.0308 33.8736 36.1038 33.9132C36.3937 34.0693 36.7161 34.0828 36.9951 34.026C37.1138 34.0013 36.9948 33.7085 37.1143 33.8729C37.1226 33.884 37.0925 34.0405 37.125 34.0572C37.1988 34.0948 37.3389 34.0668 37.3961 34.0792C37.5064 34.1039 37.5246 34.1023 37.6289 34.1041C37.7715 34.1079 37.9411 34.1857 38.094 34.1502C38.1267 34.1422 38.0834 33.9817 38.1355 33.9544C38.1876 33.9272 38.3255 33.9408 38.372 33.9786C38.4185 34.0164 38.3987 34.1426 38.4069 34.1715C38.4746 34.4155 38.6341 34.0775 38.6546 34.0692C39.0288 33.9268 39.3496 34.1193 39.7008 34.1187C39.9675 34.1179 40.2526 34.0543 40.5063 34.0631C40.8085 34.0741 41.0647 34.161 41.3583 34.1461C41.3893 34.1447 41.353 33.956 41.3908 33.9539C41.7929 33.932 42.1922 33.9525 42.5926 34.0799C42.6328 34.0928 42.581 34.2585 42.6211 34.2813C42.8667 34.4175 43.2554 34.7445 43.4012 34.0233C43.5676 34.0514 43.7696 34.0805 43.9184 34.2259C44.0144 34.3195 43.9212 34.4999 44.0391 34.4229C44.0656 34.4058 44.0311 34.2477 44.0709 34.234C44.2388 34.1761 44.4222 34.2275 44.5883 34.1458C44.6221 34.1288 44.6128 33.9872 44.6224 33.9617C44.7028 33.7552 44.8367 34.0966 44.8659 34.1214C44.913 34.1606 44.9573 34.1882 45 34.2074L45.6638 34.1442L45.7404 34.9478C45.6687 35.1067 45.7132 35.2421 45.7096 35.4054C45.7085 35.4534 45.8987 35.3966 45.9045 35.4429C45.9317 35.6827 45.9154 35.9311 45.831 36.1659C45.8118 36.2182 45.6497 36.1701 45.6323 36.1951C45.5572 36.3051 45.8632 36.3295 45.797 36.4351C45.7835 36.4573 45.6448 36.4448 45.6296 36.4489C45.3904 36.5124 45.7293 36.5676 45.7367 36.5839C45.839 36.7906 45.4852 36.9228 45.5353 37.1224C45.5417 37.1463 45.7172 37.0925 45.7243 37.1596C45.7727 37.607 45.7245 38.0801 45.5842 38.5229C45.5626 38.5917 45.4307 38.5426 45.4145 38.5469C45.1605 38.6175 45.5008 38.6632 45.5136 38.6857C45.6058 38.8628 45.3205 39.0282 45.7258 39.1485C45.6129 39.7504 45.7371 40.35 45.6031 40.9478L45.6546 41.4885L45 41.5508C44.8528 41.5178 44.7057 41.4691 44.5587 41.3974C44.5493 41.3932 44.5662 41.2256 44.5474 41.2179C44.3202 41.1239 44.3638 41.3843 44.2135 41.7028C44.1756 41.7828 44.0604 41.3982 44.0502 41.37C44.0131 41.2662 44.0516 41.0169 44.0391 40.9968C43.9362 40.8388 43.953 41.6632 43.8142 41.6635C43.8099 41.6621 43.8281 41.5104 43.8164 41.4953C43.7802 41.4479 43.7444 41.5082 43.7089 41.456C43.6279 41.3351 43.599 40.9345 43.4752 41.1677C43.4595 41.1979 43.4834 41.6656 43.3595 41.6435C43.3101 41.6343 43.0914 41.6423 43.0301 41.612C42.9689 41.5817 43.0109 41.431 43.0065 41.4245C42.8416 41.2252 42.9041 41.1426 42.8215 40.8476C42.7389 40.5537 42.7618 41.2547 42.7281 41.3329C42.6943 41.411 42.5734 41.2465 42.5437 41.1894C42.514 41.1322 42.551 41.0364 42.5246 41.0041C42.3495 40.7927 42.4477 41.352 42.39 41.4633C42.254 41.7268 42.148 41.2069 42.0234 41.1559C41.9897 41.1422 42.0172 41.2606 41.9872 41.2717C41.8684 41.3139 41.7969 41.1517 41.6617 41.3005C41.6396 41.3247 41.5302 41.6373 41.4595 41.4079C41.4495 41.3748 41.4779 41.2453 41.4273 41.2162C41.3516 41.1727 41.2153 41.1444 41.1339 41.1877C41.0739 41.2197 41.1427 41.4332 41.0671 41.3669C41.0335 41.3373 41.0958 41.2124 41.0327 41.1672C40.9699 41.122 40.8094 41.1275 40.7483 41.1318C40.6873 41.1362 40.7207 41.2981 40.7157 41.309C40.6859 41.3715 40.5689 41.4496 40.5586 41.4494C40.037 41.4692 39.556 41.1962 39.0482 41.2866C39.0084 41.2934 39.0349 41.4642 39.0288 41.467C38.8924 41.5385 39 41.0845 38.9046 40.9325C38.9184 41.2791 38.8622 41.2163 38.7661 41.2543C38.7198 41.2729 38.745 41.4071 38.7407 41.4208C38.6721 41.6246 38.6242 41.3614 38.6119 41.3075C38.5664 41.1095 38.517 41.3435 38.486 41.2111C38.4551 41.0797 38.5263 40.8849 38.4341 40.8874C38.4082 41.0114 38.4767 41.3356 38.4067 41.3881C38.1427 41.5868 37.6498 41.3325 37.4375 41.3061C37.2257 41.2797 37.1572 41.3026 37.0338 41.2577C36.8108 41.1767 36.8925 41.4172 36.754 41.5273C36.6152 41.6373 36.6827 41.0456 36.6627 40.9184C36.6431 40.7912 36.6217 40.9221 36.5974 40.8522C36.5731 40.7823 36.6257 40.6958 36.5685 40.6696C36.5113 40.6434 36.355 40.8696 36.3348 41.0026C36.2919 41.2844 36.3624 41.5802 36.2111 41.4762C36.2024 41.4701 36.2306 41.3145 36.1973 41.2988C35.9327 41.179 35.6578 41.1715 35.3935 41.0656C35.3571 41.0508 35.3896 40.8777 35.3685 40.8671C35.1482 40.7564 35.2269 41.0483 35.1062 41.3725C35.1333 40.941 35.0666 40.677 34.8994 40.6745C34.7989 40.6728 34.8162 40.8613 34.7512 40.9941C34.7317 41.0341 34.6606 40.9047 34.6477 40.9933C34.6052 41.283 34.6722 41.6073 34.4998 41.4782C34.4922 41.4721 34.5163 41.3135 34.4902 41.3039C34.3213 41.241 34.3011 41.544 34.1185 41.5807C33.9754 41.6095 33.7208 41.4248 33.5579 41.3947C33.5613 40.9096 33.4074 41.0207 33.3449 41.3552C33.2392 41.3415 33.125 41.3604 33.0227 41.3141C32.9876 41.2984 33.0107 41.1579 33.0062 41.1428C32.9382 40.9047 32.8922 41.2301 32.8694 41.2428C32.622 41.3669 32.4204 41.1202 32.1843 41.3613C32.1759 41.3699 32.1624 41.7069 32.0992 41.4609C32.0952 41.4439 32.1731 41.2906 32.0621 41.2787C31.951 41.2669 31.7416 41.0862 31.5874 41.2424C31.55 41.28 31.4556 41.5535 31.3799 41.3398C31.3698 41.3108 31.3808 41.2141 31.3663 41.1603C31.3191 40.989 31.2934 41.3296 31.2381 41.0402C31.1827 40.7509 31.0676 40.5342 30.912 40.7338C30.9071 40.7396 30.8703 41.0096 30.8214 41.0053C30.7433 40.9983 30.6324 40.942 30.5509 40.9438C30.5119 40.9447 30.5368 41.1123 30.5301 41.1154C30.3348 41.1853 30.1815 41.1205 30 41.056L29.9029 41.0653L29.8917 40.9478C29.9139 40.8853 29.9361 40.8194 29.9527 40.7474C29.9649 40.6959 29.7363 40.5477 29.9171 40.4479C30.1149 40.3384 30.9378 40.451 30.7418 40.1991C30.6633 40.0976 29.6193 39.969 30.1602 39.7864C30.0262 39.4324 30.303 39.105 30.1116 38.75C30.1032 38.734 29.8118 38.6835 29.8157 38.646C29.8222 38.5903 29.9584 38.5597 29.9674 38.5199C30.0084 38.3532 29.8919 38.2006 29.91 38.0399C29.9166 37.9789 30.0574 38.0002 30.0653 37.9274C30.073 37.8547 29.8876 37.8062 29.9771 37.7076C30.0454 37.6331 30.4244 37.5587 30.4686 37.4599C30.0947 37.4561 30.1024 37.3883 30.0037 37.2676C29.9846 37.2444 29.8545 37.2693 29.8387 37.2583C29.7716 37.2137 29.8795 37.1724 29.8065 37.13C29.7889 37.1197 29.6613 37.1192 29.6397 37.1108C29.4517 37.0391 29.7389 36.921 29.7889 36.9007C29.9788 36.823 29.8127 36.7867 29.8875 36.7271C29.9623 36.6675 30.0558 36.7565 30.1011 36.687C30.195 36.5429 30.1744 36.3577 30.1802 36.2113C30.1818 36.1529 30.0114 36.1928 30.0076 36.1844C29.9644 36.0636 30.1457 35.9415 29.8062 35.8745C30.684 35.7908 29.7211 35.8017 29.8968 35.6291C29.911 35.6155 30.3261 35.5982 30.387 35.6504C30.4479 35.7026 30.3182 35.7818 30.4132 35.8542C30.4354 35.8713 30.8244 35.9696 30.848 35.983C31.0321 36.088 30.4118 36.1029 30.3778 36.1085C30.0101 36.1715 30.4291 36.2915 30.4581 36.3231C30.5907 36.4678 30.5035 36.5907 30.5982 36.7117C30.6594 36.7908 31.0657 36.7985 31.0533 36.8607C31.0122 37.0672 30.4454 37.1393 30.9368 37.334C31.0417 37.3757 31.4857 37.3342 31.1365 37.4838C31.1145 37.4932 30.7951 37.6042 30.9971 37.6683C31.0226 37.6764 31.152 37.6761 31.1629 37.6868C31.2332 37.758 31.1301 37.8055 31.1795 37.883C31.2289 37.9606 31.3025 38.0539 31.2586 38.1424C31.2324 38.1958 30.9912 38.2643 30.9322 38.2898C30.7621 38.362 31.041 38.4393 30.835 38.484C30.6281 38.5291 30.3137 38.441 30.18 38.5591C30.5162 38.5635 30.8614 38.5736 31.1995 38.5806C31.1877 38.8396 31.079 39.0944 31.0938 39.3543C31.096 39.3865 31.2768 39.3536 31.2838 39.3881C31.3125 39.5338 31.1836 39.6611 31.2349 39.8122C31.2753 39.9292 31.4667 40.0574 31.515 40.1797C31.1302 40.2545 31.2608 40.4359 31.2257 40.5678C31.2135 40.614 31.1107 40.6109 31.0772 40.6437C30.9532 40.7676 31.2932 40.7096 31.3467 40.7436C31.5018 40.8425 31.1966 40.88 30.9908 40.9478L30 39.957C30.032 40.0542 30.0707 40.1293 30.1258 40.1232C30.1349 40.1225 30.2462 39.7122 30.2616 39.6867C30.3589 39.5201 30.2777 39.8295 30.3386 39.8598C30.4499 39.9152 30.5272 40.0132 30.6578 39.893C30.6958 39.8574 30.7872 39.6017 30.8611 39.7995C30.8708 39.8254 30.8654 39.961 30.8733 39.9689C31.015 40.1013 31.0187 39.6752 31.0996 39.5309C31.1806 39.3867 31.3057 39.6808 31.3312 39.7656C31.3978 39.9848 31.2801 39.8593 31.2765 39.8808C31.2342 40.1369 31.3254 40.0928 31.3951 40.1144C31.4052 40.5322 31.5027 40.5071 31.4673 40.1352C31.4633 40.0946 31.4091 40.1335 31.3951 40.1144C31.4563 39.7046 31.5634 39.6521 31.6817 40.0351C31.7371 40.2146 31.6847 40.4239 31.853 40.3473C31.9293 40.3128 31.8998 40.0251 31.9672 39.9467C32.1212 39.7678 32.3212 40.0361 32.4799 39.9938C32.5375 39.9785 32.4814 39.821 32.5208 39.8051C32.6253 39.7624 32.7174 39.8805 32.8223 39.82C32.8318 39.8143 32.8086 39.6495 32.8412 39.6474C33.0886 39.6283 33.3039 39.7338 33.5622 39.7368C33.687 39.7381 33.9101 39.6472 34.0393 39.6655C34.2634 39.6962 34.539 39.9358 34.7303 39.8776C34.8552 39.8403 34.8278 39.6755 34.8813 39.5632C34.9845 39.3454 35.1672 39.7354 35.1918 39.7958C35.1925 39.7978 35.0851 39.8367 35.1424 39.9213C35.1757 40.0977 35.1906 39.7966 35.1918 39.7958C35.2079 39.8348 35.4225 39.8723 35.4651 39.8408C35.4882 39.8235 35.4753 39.6673 35.4874 39.6613C35.7743 39.5215 36.0617 39.4818 36.3527 39.5549C36.3578 39.558 36.3501 39.7327 36.3622 39.738C36.5306 39.8157 36.6385 39.6019 36.7774 39.475C36.9164 39.3482 37.0265 39.3907 37.1088 39.6906C37.2136 39.6528 37.364 39.7854 37.4505 39.8659C37.537 39.9464 37.5491 39.6063 37.5567 39.5995C37.7942 39.3844 37.9315 39.579 38.1779 39.6093C38.295 39.6243 38.5274 39.575 38.6542 39.5378C38.7545 39.5078 38.8149 39.5875 38.9072 39.5366C38.9197 39.5297 38.9071 39.3783 38.9109 39.3725C39.014 39.1913 38.9644 39.5615 38.9857 39.6276C39.0629 39.868 39.1105 39.9961 39.2425 39.883C39.273 39.8571 39.3617 39.3241 39.4172 39.2929C39.4893 39.2534 39.4621 39.4444 39.5377 39.3981C39.5441 39.3943 39.5428 39.2765 39.5894 39.2817C39.8059 39.3042 40.0419 39.3728 40.2668 39.361C40.2975 39.3599 40.2582 39.1729 40.3025 39.1681C40.5109 39.146 40.7392 39.1529 40.9421 39.2404C40.9921 39.2625 40.9608 39.3934 40.9716 39.4323C41.0382 39.6675 41.1326 39.3258 41.1482 39.3193C41.5198 39.1551 41.8041 39.4643 42.1829 39.3171C42.2035 39.3084 42.3622 38.9421 42.433 39.2563C42.4378 39.2772 42.5079 39.5986 42.5698 39.3788C42.5736 39.3651 42.53 39.1996 42.6062 39.2165C42.6823 39.2333 42.8049 39.1228 42.9096 39.3046C42.9428 39.3619 43.0211 39.6825 43.12 39.4269C43.1264 39.4091 43.2791 38.8312 43.3335 39.2299C43.3424 39.2955 43.3331 39.7175 43.4511 39.5012C43.4737 39.4592 43.4328 39.3651 43.4922 39.3063C43.5832 39.2158 43.7038 39.3288 43.8156 39.1408C43.8352 39.1075 43.9182 38.8211 43.9848 39.0385C43.9953 39.0726 43.9754 39.2134 44.0106 39.2292C44.1779 39.3048 44.3531 39.2106 44.523 39.308C44.5832 39.3423 44.5524 39.57 44.6151 39.631C44.6779 39.692 44.8042 39.7507 44.8699 39.6467C44.9355 39.5426 44.8638 39.1796 44.9622 39.1506C44.9748 39.1468 44.9874 39.1434 45 39.1403L43.1925 40.9478C43.0891 40.533 43.2905 40.1219 43.3207 39.7075C43.3254 39.6442 43.1955 39.6967 43.1931 39.6034C43.1834 39.2594 43.0616 38.6654 43.3376 38.3668C43.5586 38.1276 43.7269 38.4287 43.8168 38.2459C43.8597 38.1577 43.4378 38.0623 43.4245 38.041C43.2896 37.833 43.4765 37.6884 43.4191 37.5012C43.4072 37.4625 43.2362 37.5004 43.228 37.4675C43.1983 37.3552 43.2746 37.237 43.2607 37.1296C43.254 37.0815 43.1234 37.0903 43.1335 37.046C43.1561 36.9399 43.211 36.8461 43.3334 36.7427C43.3446 36.7333 43.5071 36.7968 43.5131 36.7184C43.5224 36.5913 43.6432 36.4337 43.5185 36.2875C43.481 36.2442 43.1824 36.2425 43.3886 36.1493C43.4317 36.1297 43.7901 36.1547 43.4804 36.0461C43.4289 36.0278 43.0112 35.8454 43.2805 35.7559C43.3513 35.7323 43.6447 35.6721 43.5986 35.6199C43.5912 35.6128 43.4309 35.6412 43.4152 35.598C43.3629 35.4457 43.38 35.2861 43.3298 35.1296C43.316 35.0879 43.1501 35.1501 43.1349 35.0878C43.1241 35.0435 43.1189 34.9963 43.118 34.9478L45 36.8297C44.8612 36.8322 44.7117 36.799 44.5876 36.7606C44.5259 36.7411 44.5686 36.6036 44.5641 36.5887C44.4919 36.3454 44.4492 36.6738 44.4252 36.6929C44.2761 36.8076 44.1625 36.6533 44.0251 36.6942C43.9872 36.705 44.0141 36.8616 44.0065 36.8756C43.9282 37.012 43.9866 36.7308 43.937 36.6998C43.7982 36.612 43.6434 36.6246 43.503 36.6446C43.4514 36.6522 43.5094 36.8337 43.4631 36.8384C43.1891 36.8697 42.9043 36.8524 42.637 36.7523C42.5867 36.7331 42.6183 36.5933 42.6078 36.5613C42.5355 36.3379 42.4295 36.6427 42.4052 36.6717C42.2943 36.8042 42.2512 36.6806 42.1533 36.7037C41.675 36.8186 41.0843 36.7367 40.6328 36.6861C40.0445 36.621 39.5879 36.488 39.0268 36.5225C38.9911 36.5245 39.0271 36.7105 38.9964 36.7147C38.5995 36.7595 38.2088 36.6868 37.8111 36.7405C37.7784 36.7446 37.8255 36.9209 37.7731 36.9334C37.6657 36.9602 37.5296 36.9506 37.4209 36.8944C37.368 36.8672 37.439 36.7159 37.3857 36.6917C37.2615 36.635 37.1284 36.6224 37.0009 36.6507C36.9466 36.6631 37.0285 36.8434 36.9579 36.8455C36.4773 36.8634 36.0053 36.8945 35.5196 36.661C35.4864 36.6449 35.4571 36.2784 35.3863 36.3487C35.381 36.4504 35.3813 36.5701 35.379 36.6788C34.6793 36.7373 33.9868 36.6103 33.2853 36.5906C33.2557 36.5899 33.3068 36.784 33.2495 36.7835C32.9181 36.7806 32.5962 36.8344 32.2571 36.6414C32.2235 36.6225 32.2408 36.2809 32.1416 36.3326C32.1241 36.342 31.9748 36.3876 31.9362 36.4617C31.931 36.4729 31.9582 36.6324 31.9101 36.637C31.6305 36.6612 31.3375 36.6248 31.0584 36.5274C31.0133 36.5114 31.0613 36.3416 31.0292 36.3287C30.8016 36.2385 30.5541 36.3676 30.3366 36.2134C30.191 36.1096 30.2449 35.8161 30.1676 35.5272C30.1566 35.4864 30.0665 35.4799 30.0618 35.3118C30.0499 34.8891 30.0935 34.4262 30.0756 33.9757C30.0718 33.8786 29.9511 33.9831 30.0226 33.7486C30.0276 33.7329 30.1151 33.6551 30.1367 33.5755C30.1517 33.5205 30.1246 33.3495 30.1552 33.2791C30.1859 33.2088 30.2195 33.3521 30.2703 33.2694C30.321 33.1856 30.2987 32.9911 30.4001 32.9681ZM37.8402 40.2255C37.9203 40.3888 37.9321 39.7907 37.8454 39.9338C37.8413 39.9414 37.836 40.2175 37.8402 40.2255ZM30.6278 39.093C30.3639 39.1977 30.7519 39.2694 30.9556 39.1955C31.1592 39.1216 30.7077 39.0611 30.6278 39.093ZM30.4351 38.0067C30.2271 38.1291 31.0754 38.1484 30.9039 38.0173C30.8942 38.0097 30.4472 37.9996 30.4351 38.0067ZM30.5263 35.4449C30.5252 35.4369 30.4604 35.4292 30.4589 35.4371C30.4243 35.6271 30.5539 35.6424 30.5263 35.4449ZM30.2254 36.9288C30.1107 36.967 30.2431 37.077 30.3858 37.0295C30.5006 36.9913 30.3681 36.8812 30.2254 36.9288ZM42.0201 40.8639C42.0213 40.8729 42.0678 40.8809 42.0669 40.8305C42.0637 40.6682 41.9991 40.714 42.0201 40.8639ZM30.2156 35.0967C30.1837 35.3674 29.483 35.5315 29.5621 35.2367C29.5764 35.1833 29.7855 35.3518 29.8487 35.2838C29.9638 35.1595 29.5238 35.0769 29.7596 34.9501C29.8027 34.9271 30.219 35.0812 30.2166 35.0972C30.2163 35.097 30.216 35.0968 30.2156 35.0967ZM37.8863 40.944C37.8879 40.9519 37.9522 40.9594 37.9538 40.9516C37.9886 40.7617 37.859 40.7465 37.8863 40.944ZM44.7308 41.2338C44.7344 41.2507 44.8836 41.2664 44.8885 41.2509C44.9663 40.9404 44.6646 40.9076 44.7308 41.2338ZM33.5553 41.3818C33.4851 41.5728 33.4012 41.5953 33.3453 41.3554C33.415 41.3681 33.4852 41.37 33.5553 41.3818Z" fill="black"/>
<path d="M10 22.9478H40V28.9478H10V22.9478Z" fill="black"/>
<path d="M10.6858 20.9681C11.0893 20.916 11.6182 20.9717 12.0201 21.0482C12.1461 21.0719 12.0823 21.1779 12.1692 21.199C12.3393 21.2403 12.4978 21.1883 12.6658 21.2374C12.7215 21.2542 12.6522 21.4221 12.7106 21.4359C13.0306 21.5101 13.3334 21.4673 13.6576 21.503C15.2546 21.6791 16.8243 21.7422 18.4408 21.8187C18.9738 21.8438 19.6217 21.9962 20.1722 21.9295C20.2365 21.9216 20.1982 21.7742 20.2104 21.762C20.4022 21.5761 20.3384 21.8736 20.4637 21.9132C20.9606 22.0693 21.5133 22.0828 21.9916 22.026C22.1951 22.0013 21.991 21.7085 22.1959 21.8729C22.2102 21.884 22.1585 22.0405 22.2143 22.0572C22.3409 22.0948 22.581 22.0668 22.6791 22.0792C22.8681 22.1039 22.8993 22.1023 23.0781 22.1041C23.3225 22.1079 23.6132 22.1857 23.8755 22.1502C23.9314 22.1422 23.8573 21.9817 23.9466 21.9544C24.036 21.9272 24.2723 21.9408 24.352 21.9786C24.4317 22.0164 24.3978 22.1426 24.4119 22.1715C24.5279 22.4155 24.8013 22.0775 24.8365 22.0692C25.4779 21.9268 26.0279 22.1193 26.63 22.1187C27.0871 22.1179 27.5758 22.0543 28.0107 22.0631C28.5289 22.0741 28.968 22.161 29.4714 22.1461C29.5245 22.1447 29.4622 21.956 29.5271 21.9539C30.2164 21.932 30.901 21.9525 31.5873 22.0799C31.6562 22.0928 31.5675 22.2585 31.6362 22.2813C32.0573 22.4175 32.7235 22.7445 32.9735 22.0233C33.2587 22.0514 33.605 22.0805 33.8601 22.2259C34.0247 22.3195 33.8649 22.4999 34.067 22.4229C34.1125 22.4058 34.0533 22.2477 34.1216 22.234C34.4094 22.1761 34.7238 22.2275 35.0085 22.1458C35.0664 22.1288 35.0506 21.9872 35.067 21.9617C35.2049 21.7552 35.4344 22.0966 35.4845 22.1214C35.8655 22.3064 36.1438 22.2336 36.4988 22.2381C36.5812 22.2392 36.4838 22.049 36.5631 22.0433C36.9742 22.016 37.4 22.0324 37.8026 22.1168C37.8921 22.136 37.8098 22.298 37.8526 22.3155C38.0412 22.3906 38.0831 22.0846 38.264 22.1507C38.3022 22.1643 38.2807 22.303 38.2876 22.3182C38.3965 22.5573 38.4912 22.2185 38.5192 22.211C38.8735 22.1088 39.1 22.4625 39.4423 22.4124C39.4832 22.4061 39.3909 22.2306 39.506 22.2235C39.669 22.2132 39.834 22.2072 40 22.2056L40.6987 22.1668L40.7421 22.9478C40.7481 23.563 40.6947 24.1931 40.5842 24.7908C40.5626 24.9089 40.4307 24.8246 40.4145 24.832C40.1605 24.9531 40.5008 25.0314 40.5136 25.0699C40.6058 25.3735 40.3205 25.6571 40.7258 25.8634C40.6129 26.8951 40.7371 27.923 40.6031 28.9478L40.6346 29.5156L40 29.5508C39.7477 29.5178 39.4955 29.4691 39.2435 29.3974C39.2273 29.3932 39.2564 29.2256 39.224 29.2179C38.8346 29.1239 38.9094 29.3843 38.6516 29.7028C38.5867 29.7828 38.3892 29.3982 38.3718 29.37C38.3081 29.2662 38.3741 29.0169 38.3528 28.9968C38.1764 28.8388 38.2052 29.6632 37.9672 29.6635C37.9597 29.6621 37.991 29.5104 37.971 29.4953C37.909 29.4479 37.8475 29.5082 37.7867 29.456C37.6478 29.3351 37.5983 28.9345 37.386 29.1677C37.3592 29.1979 37.4002 29.6656 37.1877 29.6435C37.103 29.6343 36.7281 29.6423 36.623 29.612C36.5181 29.5817 36.5901 29.431 36.5826 29.4245C36.2999 29.2252 36.4071 29.1426 36.2654 28.8476C36.1238 28.5537 36.163 29.2547 36.1053 29.3329C36.0474 29.411 35.8401 29.2465 35.7892 29.1894C35.7382 29.1322 35.8017 29.0364 35.7565 29.0041C35.4562 28.7927 35.6247 29.352 35.5258 29.4633C35.2925 29.7268 35.1109 29.2069 34.8973 29.1559C34.8396 29.1422 34.8867 29.2606 34.8353 29.2717C34.6315 29.3139 34.509 29.1517 34.2772 29.3005C34.2392 29.3247 34.0518 29.6373 33.9305 29.4079C33.9134 29.3748 33.9622 29.2453 33.8753 29.2162C33.7456 29.1727 33.5119 29.1444 33.3724 29.1877C33.2695 29.2197 33.3875 29.4332 33.2579 29.3669C33.2003 29.3373 33.307 29.2124 33.1988 29.1672C33.0912 29.122 32.816 29.1275 32.7113 29.1318C32.6068 29.1362 32.664 29.2981 32.6556 29.309C32.6045 29.3715 32.4039 29.4496 32.3861 29.4494C31.492 29.4692 30.6675 29.1962 29.7969 29.2866C29.7286 29.2934 29.7741 29.4642 29.7637 29.467C29.5298 29.5385 29.7142 29.0845 29.5508 28.9325C29.5744 29.2791 29.478 29.2163 29.3132 29.2543C29.2339 29.2729 29.2771 29.4071 29.2698 29.4208C29.1521 29.6246 29.0701 29.3614 29.049 29.3075C28.9711 29.1095 28.8862 29.3435 28.8331 29.2111C28.7801 29.0797 28.9022 28.8849 28.7442 28.8874C28.6998 29.0114 28.8171 29.3356 28.6972 29.3881C28.2446 29.5868 27.3997 29.3325 27.0358 29.3061C26.6726 29.2797 26.5553 29.3026 26.3436 29.2577C25.9614 29.1767 26.1015 29.4172 25.8641 29.5273C25.626 29.6373 25.7417 29.0456 25.7075 28.9184C25.6739 28.7912 25.6373 28.9221 25.5955 28.8522C25.5538 28.7823 25.644 28.6958 25.546 28.6696C25.448 28.6434 25.18 28.8696 25.1453 29.0026C25.0719 29.2844 25.1926 29.5802 24.9333 29.4762C24.9183 29.4701 24.9668 29.3145 24.9096 29.2988C24.456 29.179 23.9848 29.1715 23.5317 29.0656C23.4694 29.0508 23.5251 28.8777 23.4888 28.8671C23.1112 28.7564 23.2462 29.0483 23.0392 29.3725C23.0857 28.941 22.9712 28.677 22.6846 28.6745C22.5123 28.6728 22.542 28.8613 22.4306 28.9941C22.3971 29.0341 22.2752 28.9047 22.2531 28.9933C22.1803 29.283 22.2951 29.6073 21.9996 29.4782C21.9867 29.4721 22.0279 29.3135 21.9832 29.3039C21.6936 29.241 21.6589 29.544 21.3459 29.5807C21.1006 29.6095 20.6643 29.4248 20.3849 29.3947C20.3908 28.9096 20.1269 29.0207 20.0199 29.3552C19.8386 29.3415 19.6428 29.3604 19.4676 29.3141C19.4073 29.2984 19.4469 29.1579 19.4393 29.1428C19.3227 28.9047 19.2438 29.2301 19.2047 29.2428C18.7806 29.3669 18.435 29.1202 18.0303 29.3613C18.0159 29.3699 17.9926 29.7069 17.8844 29.4609C17.8774 29.4439 18.0111 29.2906 17.8207 29.2787C17.6303 29.2669 17.2713 29.0862 17.0069 29.2424C16.9429 29.28 16.7811 29.5535 16.6512 29.3398C16.6339 29.3108 16.6528 29.2141 16.6279 29.1603C16.5471 28.989 16.503 29.3296 16.4081 29.0402C16.3132 28.7509 16.1158 28.5342 15.8492 28.7338C15.8407 28.7396 15.7776 29.0096 15.6937 29.0053C15.5599 28.9983 15.3699 28.942 15.2301 28.9438C15.1632 28.9447 15.206 29.1123 15.1944 29.1154C14.7445 29.2093 14.4243 29.0599 13.9422 28.995C13.8539 28.9828 13.6 29.2114 13.4289 29.0307C13.2411 28.8329 13.4341 28.0099 13.0024 28.206C12.8282 28.2844 12.6078 29.3284 12.2948 28.7875C11.6879 28.9216 11.1267 28.6447 10.5181 28.8361C10.4907 28.8446 10.4042 29.136 10.3398 29.132C10.2443 29.1256 10.1919 28.9894 10.1237 28.9804C10.082 28.9744 10.0408 28.9718 10 28.9716L9.97755 28.9728L9.97616 28.9478C9.97724 28.709 9.8945 28.4839 9.90998 28.2485C9.91657 28.1439 10.0574 28.1805 10.0653 28.0557C10.073 27.931 9.88756 27.8479 9.97712 27.6789C10.0454 27.5513 10.4244 27.4237 10.4686 27.2543C10.0947 27.2478 10.1024 27.1315 10.0037 26.9247C9.98458 26.8849 9.85446 26.9276 9.83869 26.9088C9.77163 26.8322 9.87947 26.7614 9.80647 26.6888C9.78893 26.6711 9.66126 26.6702 9.63972 26.6558C9.4517 26.5329 9.73888 26.3305 9.78889 26.2957C9.97879 26.1625 9.81274 26.1002 9.88752 25.998C9.96229 25.8959 10.0558 26.0485 10.1011 25.9293C10.195 25.6822 10.1744 25.3648 10.1802 25.1139C10.1818 25.0137 10.0114 25.082 10.0076 25.0677C9.96441 24.8607 10.1457 24.6513 9.80622 24.5365C10.684 24.393 9.72109 24.4117 9.8968 24.1157C9.91101 24.0924 10.3261 24.0628 10.387 24.1523C10.4479 24.2418 10.3182 24.3775 10.4132 24.5016C10.4354 24.5311 10.8244 24.6995 10.848 24.7225C11.0321 24.9025 10.4118 24.928 10.3778 24.9375C10.0101 25.0455 10.4291 25.2514 10.4581 25.3056C10.5907 25.5535 10.5035 25.7642 10.5982 25.9716C10.6594 26.1073 11.0657 26.1205 11.0533 26.2271C11.0122 26.5811 10.4454 26.7047 10.9368 27.0384C11.0417 27.1099 11.4857 27.0388 11.1365 27.2952C11.1145 27.3113 10.7951 27.5016 10.9971 27.6116C11.0226 27.6254 11.152 27.625 11.1629 27.6432C11.2332 27.7653 11.1301 27.8467 11.1795 27.9796C11.2289 28.1126 11.3025 28.2725 11.2586 28.4243C11.2324 28.5158 10.9912 28.6332 10.9322 28.677C10.8019 28.7717 10.9351 28.8717 10.9119 28.9478L10 28.0358C10.0232 28.0429 10.0442 28.0645 10.0621 28.1127C10.1394 28.3197 9.98835 28.634 10.191 28.7678C10.1985 28.4315 10.2157 28.0864 10.2278 27.7482C10.6718 27.7601 11.1086 27.8688 11.5541 27.8539C11.6093 27.8518 11.5528 27.671 11.612 27.664C11.8618 27.6353 12.08 27.7641 12.3391 27.7128C12.5396 27.6724 12.7595 27.481 12.9691 27.4328C13.0972 27.8176 13.4083 27.6869 13.6344 27.7221C13.7135 27.7343 13.7082 27.837 13.7645 27.8705C13.977 27.9945 13.8774 27.6545 13.9357 27.601C14.1855 27.3726 14.2069 28.1422 14.5014 28.1232C14.5171 28.1225 14.7078 27.7122 14.7341 27.6867C14.901 27.5201 14.7617 27.8295 14.8662 27.8598C15.057 27.9152 15.1895 28.0132 15.4133 27.893C15.4786 27.8574 15.6351 27.6017 15.7619 27.7995C15.7785 27.8254 15.7693 27.961 15.7827 27.9689C16.0256 28.1013 16.032 27.6752 16.1708 27.5309C16.3097 27.3867 16.5241 27.6808 16.5677 27.7656C16.6819 27.9848 16.4802 27.8593 16.474 27.8808C16.4014 28.1369 16.5578 28.0928 16.6773 28.1144C16.6946 28.5322 16.8617 28.5071 16.8012 28.1352C16.7943 28.0946 16.7013 28.1335 16.6773 28.1144C16.7822 27.7046 16.9658 27.6521 17.1687 28.0351C17.2636 28.2146 17.1738 28.4239 17.4623 28.3473C17.5932 28.3128 17.5426 28.0251 17.6581 27.9467C17.922 27.7678 18.2649 28.0361 18.537 27.9938C18.6358 27.9785 18.5396 27.821 18.607 27.8051C18.7861 27.7624 18.9441 27.8805 19.124 27.82C19.1403 27.8143 19.1004 27.6495 19.1564 27.6474C19.5804 27.6283 19.9496 27.7338 20.3923 27.7368C20.6062 27.7381 20.9887 27.6472 21.2103 27.6655C21.5943 27.6962 22.0668 27.9358 22.3949 27.8776C22.6089 27.8403 22.5619 27.6755 22.6536 27.5632C22.8305 27.3454 23.1437 27.7354 23.1859 27.7958C23.1872 27.7978 23.003 27.8367 23.1013 27.9213C23.1584 28.0977 23.1838 27.7966 23.1859 27.7958C23.2136 27.8348 23.5814 27.8723 23.6545 27.8408C23.6941 27.8235 23.6719 27.6673 23.6926 27.6613C24.1845 27.5215 24.6772 27.4818 25.1761 27.5549C25.1848 27.558 25.1716 27.7327 25.1923 27.738C25.4811 27.8157 25.666 27.6019 25.9042 27.475C26.1423 27.3482 26.3312 27.3907 26.4722 27.6906C26.6519 27.6528 26.9097 27.7854 27.058 27.8659C27.2064 27.9464 27.2271 27.6063 27.2401 27.5995C27.6472 27.3844 27.8826 27.579 28.305 27.6093C28.5058 27.6243 28.9041 27.575 29.1215 27.5378C29.2934 27.5078 29.3969 27.5875 29.5552 27.5366C29.5766 27.5297 29.555 27.3783 29.5615 27.3725C29.7382 27.1913 29.6533 27.5615 29.6898 27.6276C29.8221 27.868 29.9038 27.9961 30.1301 27.883C30.1823 27.8571 30.3343 27.3241 30.4295 27.2929C30.5532 27.2534 30.5065 27.4444 30.636 27.3981C30.6471 27.3943 30.6448 27.2765 30.7247 27.2817C31.0958 27.3042 31.5004 27.3728 31.886 27.361C31.9386 27.3599 31.8711 27.1729 31.9472 27.1681C32.3043 27.146 32.6958 27.1529 33.0437 27.2404C33.1293 27.2625 33.0756 27.3934 33.0942 27.4323C33.2083 27.6675 33.3702 27.3258 33.3969 27.3193C34.0339 27.1551 34.5214 27.4643 35.1706 27.3171C35.206 27.3084 35.478 26.9421 35.5994 27.2563C35.6077 27.2772 35.7277 27.5986 35.8339 27.3788C35.8405 27.3651 35.7657 27.1996 35.8963 27.2165C36.0268 27.2333 36.237 27.1228 36.4165 27.3046C36.4733 27.3619 36.6076 27.6825 36.7771 27.4269C36.7881 27.4091 37.0498 26.8312 37.1432 27.2299C37.1584 27.2955 37.1425 27.7175 37.3448 27.5012C37.3835 27.4592 37.3133 27.3651 37.4151 27.3063C37.5711 27.2158 37.7779 27.3288 37.9697 27.1408C38.0031 27.1075 38.1455 26.8211 38.2597 27.0385C38.2776 27.0726 38.2436 27.2134 38.3039 27.2292C38.5907 27.3048 38.8911 27.2106 39.1823 27.308C39.2854 27.3423 39.2327 27.57 39.3402 27.631C39.4478 27.692 39.6644 27.7507 39.7769 27.6467C39.8895 27.5426 39.7665 27.1796 39.9351 27.1506C39.9568 27.1468 39.9784 27.1434 40 27.1403L38.1925 28.9478C38.0891 28.2368 38.2905 27.532 38.3207 26.8217C38.3254 26.7131 38.1955 26.8031 38.1931 26.6431C38.1834 26.0534 38.0616 25.0351 38.3376 24.5233C38.5586 24.1133 38.7269 24.6293 38.8168 24.316C38.8597 24.1648 38.4378 24.0012 38.4245 23.9647C38.2896 23.6081 38.4765 23.3603 38.4191 23.0393C38.4072 22.9731 38.2362 23.0381 38.228 22.9817C38.2262 22.9704 38.2249 22.9591 38.2238 22.9478L40 24.7239C39.8176 24.7408 39.628 24.6739 39.4547 24.6871C39.3721 24.6937 39.3873 24.8244 39.3113 24.8143C39.1294 24.7917 38.9686 24.7367 38.7914 24.6143C38.7752 24.6032 38.8841 24.4407 38.7496 24.4346C38.5319 24.4253 38.2616 24.3045 38.0111 24.4293C37.9367 24.4668 37.9338 24.7653 37.774 24.5591C37.7405 24.5161 37.7833 24.1576 37.5971 24.4674C37.5658 24.5188 37.2532 24.9366 37.0997 24.6673C37.0593 24.5964 36.9559 24.3031 36.8666 24.3492C36.8544 24.3565 36.903 24.5169 36.8289 24.5325C36.5679 24.5849 36.2943 24.5678 36.0261 24.618C35.9545 24.6317 36.0611 24.7976 35.9544 24.8128C35.6609 24.8547 35.2944 24.8125 35.0074 24.7606C34.9016 24.7411 34.9747 24.6036 34.967 24.5887C34.8432 24.3454 34.77 24.6738 34.7289 24.6929C34.4733 24.8076 34.2787 24.6533 34.0431 24.6942C33.978 24.705 34.0241 24.8616 34.0112 24.8756C33.877 25.012 33.977 24.7308 33.892 24.6998C33.654 24.612 33.3886 24.6246 33.1479 24.6446C33.0595 24.6522 33.1589 24.8337 33.0796 24.8384C32.6099 24.8697 32.1217 24.8524 31.6634 24.7523C31.5771 24.7331 31.6314 24.5933 31.6134 24.5613C31.4895 24.3379 31.3078 24.6427 31.266 24.6717C31.0759 24.8042 31.0021 24.6806 30.8342 24.7037C30.0142 24.8186 29.0017 24.7367 28.2277 24.6861C27.2191 24.621 26.4364 24.488 25.4745 24.5225C25.4134 24.5245 25.475 24.7105 25.4223 24.7147C24.742 24.7595 24.0722 24.6868 23.3904 24.7405C23.3345 24.7446 23.4151 24.9209 23.3253 24.9334C23.1411 24.9602 22.9078 24.9506 22.7216 24.8944C22.6308 24.8672 22.7526 24.7159 22.6612 24.6917C22.4483 24.635 22.2201 24.6224 22.0015 24.6507C21.9084 24.6631 22.0488 24.8434 21.9279 24.8455C21.104 24.8634 20.2948 24.8945 19.4622 24.661C19.4052 24.6449 19.3551 24.2784 19.2337 24.3487C19.2246 24.4504 19.2251 24.5701 19.2211 24.6788C18.0217 24.7373 16.8346 24.6103 15.6319 24.5906C15.5811 24.5899 15.6688 24.784 15.5706 24.7835C15.0024 24.7806 14.4506 24.8344 13.8694 24.6414C13.8117 24.6225 13.8413 24.2809 13.6713 24.3326C13.6414 24.342 13.3854 24.3876 13.3192 24.4617C13.3102 24.4729 13.3569 24.6324 13.2745 24.637C12.7952 24.6612 12.2929 24.6248 11.8144 24.5274C11.7372 24.5114 11.8194 24.3416 11.7644 24.3287C11.3742 24.2385 10.9499 24.3676 10.577 24.2134C10.3275 24.1096 10.4199 23.8161 10.2873 23.5272C10.2685 23.4864 10.114 23.4799 10.106 23.3118C10.0855 22.8891 10.1603 22.4262 10.1296 21.9757C10.1231 21.8786 9.91618 21.9831 10.0387 21.7486C10.0473 21.7329 10.1973 21.6551 10.2343 21.5755C10.26 21.5205 10.2136 21.3495 10.2661 21.2791C10.3186 21.2088 10.3763 21.3521 10.4633 21.2694C10.5503 21.1856 10.5121 20.9911 10.6858 20.9681ZM27.726 28.2255C27.8634 28.3888 27.8836 27.7907 27.7351 27.9338C27.7279 27.9414 27.7189 28.2175 27.726 28.2255ZM11.1061 28.32C11.2857 28.5838 11.4086 28.1959 11.2819 27.9921C11.1552 27.7886 11.0514 28.24 11.1061 28.32ZM10.4351 28.1917C10.2271 28.4016 11.0754 28.4346 10.9039 28.2098C10.8942 28.1967 10.4472 28.1794 10.4351 28.1917ZM10.9022 23.4449C10.9003 23.4369 10.7893 23.4292 10.7866 23.4371C10.7275 23.6271 10.9496 23.6424 10.9022 23.4449ZM10.2254 26.3438C10.1107 26.4093 10.2431 26.598 10.3858 26.5165C10.5006 26.451 10.3681 26.2622 10.2254 26.3438ZM34.8916 28.8639C34.8937 28.8729 34.9734 28.8809 34.9718 28.8305C34.9664 28.6682 34.8555 28.714 34.8916 28.8639ZM10.2156 23.2031C10.1837 23.6671 9.48302 23.9484 9.56208 23.4431C9.57639 23.3516 9.78553 23.6403 9.8487 23.5239C9.96379 23.3107 9.52384 23.1692 9.75959 22.9517C9.80274 22.9124 10.219 23.1766 10.2166 23.2039C10.2163 23.2036 10.216 23.2033 10.2156 23.2031ZM27.8051 28.944C27.8078 28.9519 27.9181 28.9594 27.9207 28.9516C27.9804 28.7617 27.7583 28.7465 27.8051 28.944ZM39.5385 29.2338C39.5446 29.2507 39.8004 29.2664 39.8088 29.2509C39.9422 28.9404 39.425 28.9076 39.5385 29.2338ZM20.3805 29.3818C20.2602 29.5728 20.1163 29.5953 20.0204 29.3554C20.14 29.3681 20.2603 29.37 20.3805 29.3818Z" fill="black"/>
</svg>
