<svg width="144" height="53" viewBox="0 0 144 53" fill="none" xmlns="http://www.w3.org/2000/svg">
<path d="M0.943848 26.4739C0.943848 12.405 12.3489 1 26.4177 1H117.313C131.382 1 142.787 12.405 142.787 26.4739C142.787 40.5427 131.382 51.9477 117.313 51.9477H26.4177C12.3489 51.9477 0.943848 40.5427 0.943848 26.4739Z" fill="white"/>
<path d="M96.7538 52.5624C89.2084 52.4281 83.2685 52.9994 74.0717 52.9C64.875 52.8017 63.4976 52.5087 52.965 52.5559C42.4329 52.5971 31.8948 52.3899 27.2052 52.4867C26.9288 52.4922 26.667 52.4963 26.4177 52.4991C22.3788 52.3269 21.4321 52.2828 15.5461 49.9293C9.47761 46.9711 6.47579 43.6877 3.67696 38.5553C2.49285 36.3224 0.70632 31.6847 0.782237 26.4739C0.629473 19.5818 4.31675 12.7322 6.7769 9.99567C10.8725 4.74775 18.1579 1.69188 22.581 1.23309C23.9586 1.03603 25.0598 0.990368 25.8959 0.983557C26.2521 0.981492 26.4177 0.992785 26.4177 1.00169C26.4177 1.0017 26.4177 1.0017 26.4177 1.00171C26.4177 1.01375 26.1612 1.02235 25.7054 1.03619C23.5065 1.10006 20.1483 1.51788 16.5717 3.09372C10.3119 6.50771 8.85821 6.71265 3.84254 15.0731C1.88571 19.0781 1.24146 22.7682 1.26307 26.4739C1.35847 30.8917 2.3108 35.5986 5.79096 40.7869C11.8705 48.3348 15.6394 50.5166 26.4177 51.3566C28.2161 51.3639 30.2166 51.3818 32.4789 51.4149C48.8445 51.6683 50.5669 51.1334 66.8757 51.014C83.1847 50.8971 103.772 51.2124 113.603 51.1862C114.792 51.1827 116.03 51.1787 117.313 51.1744C126.298 51.4959 138.045 44.7457 141.168 32.9521C141.735 30.9152 142.049 28.7309 142.052 26.4739C142.643 14.0239 130.531 1.37816 117.552 1.65702C117.473 1.65541 117.393 1.65418 117.313 1.65332C101.944 1.48865 80.37 1.29979 70.3747 1.20722C60.3269 1.11167 57.8779 1.10248 48.2064 1.12697C42.6471 1.14119 34.9886 1.09987 28.5198 1.03469C25.2642 1.00218 26.0019 0.965082 29.2787 0.9403C34.0705 0.903261 38.0041 0.920659 40.4731 0.851967C45.4067 0.711958 47.5035 0.636219 53.7318 0.703226C59.9598 0.776996 62.8944 0.553053 66.525 0.56166C70.1557 0.572043 70.096 0.718401 88.5564 0.551033C101.786 0.425326 110.732 0.350203 117.313 0.301493C119.992 0.284708 122.275 0.656255 124.247 1.17759C131.492 2.10318 144.214 13.8261 143.527 26.2475C143.528 26.3224 143.529 26.3978 143.53 26.4739C143.693 31.6656 141.525 39.4763 136.034 44.909C130.707 50.4994 122.804 52.9036 117.313 52.799C115.942 52.8074 114.71 52.8175 113.655 52.8297C104.318 52.9366 104.299 52.6978 96.7538 52.5624Z" fill="black"/>
</svg>
